<svg xmlns="http://www.w3.org/2000/svg" viewBox="0 0 68.46 58.84"><title>Asset 1</title><g id="Layer_2" data-name="Layer 2"><g id="Layer_1-2" data-name="Layer 1"><path d="M12.63,40.76a1.09,1.09,0,0,0,1.08,1.08h41a1.08,1.08,0,0,0,1.08-1.08V33.92a1.08,1.08,0,0,0-1.08-1.08H54A1.08,1.08,0,0,0,53,33.92v3.85a1.08,1.08,0,0,1-1.08,1.08h-.72a1.09,1.09,0,0,1-1.08-1.08V33.92A1.08,1.08,0,0,0,49,32.84h-.72a1.08,1.08,0,0,0-1.08,1.08v3.85a1.08,1.08,0,0,1-1.08,1.08h-.72a1.09,1.09,0,0,1-1.08-1.08V33.92a1.08,1.08,0,0,0-1.08-1.08h-.72a1.08,1.08,0,0,0-1.08,1.08v3.85a1.08,1.08,0,0,1-1.08,1.08h-.72a1.09,1.09,0,0,1-1.08-1.08V33.92a1.08,1.08,0,0,0-1.08-1.08h-.72a1.08,1.08,0,0,0-1.08,1.08v3.86a1.08,1.08,0,0,1-1.08,1.08h-.72a1.09,1.09,0,0,1-1.08-1.08V33.92a1.08,1.08,0,0,0-1.08-1.08H31a1.08,1.08,0,0,0-1.08,1.08v3.84a1.08,1.08,0,0,1-1.08,1.08h-.72A1.08,1.08,0,0,1,27,37.76V33.92A1.08,1.08,0,0,0,26,32.84h-.72a1.08,1.08,0,0,0-1.08,1.08v3.85a1.08,1.08,0,0,1-1.08,1.08h-.72a1.09,1.09,0,0,1-1.08-1.08V33.92a1.08,1.08,0,0,0-1.08-1.08h-.72a1.08,1.08,0,0,0-1.08,1.08v3.84a1.08,1.08,0,0,1-1.08,1.08h-.72a1.09,1.09,0,0,1-1.08-1.08V33.92a1.08,1.08,0,0,0-1.08-1.08h-.72a1.08,1.08,0,0,0-1.08,1.08Z"/><path d="M18.15,52.84H8.31a1.08,1.08,0,0,0-1.08,1.08v3.84a1.09,1.09,0,0,0,1.08,1.08h.84a1.08,1.08,0,0,0,1.08-1.08v-.84a1.08,1.08,0,0,1,1.08-1.08h6.84a1.08,1.08,0,0,0,1.08-1.08v-.84A1.08,1.08,0,0,0,18.15,52.84Z"/><path d="M60.15,52.84H50.31a1.08,1.08,0,0,0-1.08,1.08v.84a1.09,1.09,0,0,0,1.08,1.08h6.84a1.08,1.08,0,0,1,1.08,1.08v.84a1.09,1.09,0,0,0,1.08,1.08h.84a1.08,1.08,0,0,0,1.08-1.08V53.92A1.08,1.08,0,0,0,60.15,52.84Z"/><path d="M68.32,34.42l-1-1.76a1.08,1.08,0,0,0-1.47-.4l-1.16.67a1.08,1.08,0,0,0-.4,1.48l.16.27-3,1.75-.17-.28V33.92a1.08,1.08,0,0,0-1.08-1.08h-.84a1.08,1.08,0,0,0-1.08,1.08v8.84a1.08,1.08,0,0,1-1.08,1.08H11.31a1.09,1.09,0,0,1-1.08-1.08V33.92a1.08,1.08,0,0,0-1.08-1.08H8.31a1.08,1.08,0,0,0-1.08,1.08v2.2l-.16.29L4,34.66l.16-.28a1.08,1.08,0,0,0-.39-1.47l-1.16-.67a1.09,1.09,0,0,0-1.48.39l-1,1.77a1.09,1.09,0,0,0,.4,1.48l1.16.67a1.08,1.08,0,0,0,1.47-.4l.16-.28,3,1.75-.51.89A1.08,1.08,0,0,0,6.25,40l.56.32a1.1,1.1,0,0,0,.42.14v9.32a1.09,1.09,0,0,0,1.08,1.08H60.15a1.08,1.08,0,0,0,1.08-1.08v-9.3a1.13,1.13,0,0,0,.43-.13l.55-.32a1.08,1.08,0,0,0,.4-1.48l-.51-.88,3-1.75.16.27a1.08,1.08,0,0,0,1.48.4l1.16-.67A1.09,1.09,0,0,0,68.32,34.42Z"/><path d="M10.29,12.9a33.9,33.9,0,0,1,47.88,0,1.51,1.51,0,0,0,1.06.44,1.5,1.5,0,0,0,1.06-2.56,36.9,36.9,0,0,0-52.12,0,1.5,1.5,0,0,0,2.12,2.12Z"/><path d="M54.23,20.43a1.5,1.5,0,0,0,1.06-2.56,29.8,29.8,0,0,0-42.12,0A1.5,1.5,0,0,0,15.29,20a26.8,26.8,0,0,1,37.88,0A1.51,1.51,0,0,0,54.23,20.43Z"/><path d="M19,24.78a1.49,1.49,0,0,0,0,2.12,1.5,1.5,0,0,0,2.12,0,18.52,18.52,0,0,1,26.16,0,1.5,1.5,0,0,0,2.13-2.12A21.52,21.52,0,0,0,19,24.78Z"/></g></g></svg>