<?xml version="1.0" encoding="utf-8"?>
<!-- Generator: Adobe Illustrator 24.0.2, SVG Export Plug-In . SVG Version: 6.00 Build 0)  -->
<svg version="1.1" id="Layer_1" xmlns="http://www.w3.org/2000/svg" xmlns:xlink="http://www.w3.org/1999/xlink" x="0px" y="0px"
	 viewBox="40 40 270 270" style="enable-background:new 0 0 350 350;" xml:space="preserve">
<style type="text/css">
	.st0{fill:#723390;}
	.st1{opacity:0.3;clip-path:url(#SVGID_2_);}
	.st2{fill:#FFFFFF;}
</style>
<path d="M69.4,69.6h211.2v211H69.4V69.6z"/>
<path class="st0" d="M78.8,79.2h192.6v192.4H78.8V79.2z"/>
<g>
	<defs>
		<rect id="SVGID_1_" x="78.8" y="79.2" width="192.6" height="192.4"/>
	</defs>
	<clipPath id="SVGID_2_">
		<use xlink:href="#SVGID_1_"  style="overflow:visible;"/>
	</clipPath>
	<g class="st1">
		
			<image style="overflow:visible;enable-background:new    ;" width="231" height="225" xlink:href="DD9887EE.png"  transform="matrix(1 0 0 1 61 54)">
		</image>
	</g>
</g>
<path d="M60.1,221.3c-2.3,4.5-3.1,9.6-5.9,13.8c1.3,0.6,1.5,0.9,2.9,0.6c0.8-0.2,1.6-0.5,2.3-0.8c1.8-0.7,3.6-1.3,5.3-2
	c3.3-1.3,6.5-2.7,9.7-4.2c3.2-1.5,6.4-3.1,9.5-4.9c0.9-0.5,1.2-0.9,2-0.5c0.7,0.3,1.3,1.4,1.8,1.9l3.5,3.7c2.7,2.9,5.4,5.8,7.9,8.8
	c0.4,0.6,0.8,1.1,1.2,1.7c0.6,0.8,1.2,1.5,2,2.1c0.4,0.4,1.2,0.8,1.3,1.5c0.3,1.2-0.3,1.4-1.2,2.4c0.8-0.2,1.7-0.2,2.5-0.2
	c0.8,0.3,0.3,0.2,0.6,1c0.6,1.3,0.8,2.4,2,3.4c1.5,1.4,3.1,2.1,4.6,0.8c4.7-4.4,9.8-8.4,15.2-11.8c-4.3,5.6-10.7,9.1-14.7,15
	c2.5-2.4,5.3-4.6,8.3-6.3c1.7-0.8,3.2-2,4.2-3.6c0.7-1.2,1.6-2.3,2.7-3.3c3.5-2.9,7.7-4.5,11.4-7.1c1.9-1.4,3.7-2.9,5.4-4.5
	c1.2-1.2,1.5-1,3.2-0.7l3.7,0.8l8,1.6c1.2,0.2,2.8,0.2,3.2,1.1c0.3,0.7,0.2,1.8,0.5,2.6c0.7,1.9,1.5,3.1,1.5,5.2
	c0,0.8,0,1.6,0.1,2.3c0.6,3.1,1.7,6,3.2,8.8c0.4,1.1,0.9,2.2,1.6,3.2c0.1,0.8,0.9,1.4,1.7,1.3c0,0,0.1,0,0.1,0
	c0.7,0.8,1,2.8,1.3,3.8l1.3,3.8c2.9-2.8,6.3-5.2,9.9-7.1c2.6-1.2,5.1-1.6,7.8-2.3c4-1.1,5.6-4.4,8.9-6.4c1.6-0.9,3.3-1.2,5-2
	c1.7-0.8,3.2-2,4.4-3.5l1.3,2.3c0.4-1.2,0.3-2.6-0.2-3.8c0.8,0.3,1.7,0.3,2.5,0c0.9-0.6,0.5-1.5,1.1-2.2c1.2-1.6,3.9-0.5,5.5-1.8
	c1.2-0.9,1.5-2.9,3.3-2.9s0.7,0.6,1.2,1.7s2.4,0.2,2.9,1.1c0.2,0.4-0.2,1.2,0,1.6c0.3,0.7,0.1,0.2,0.6,0.6c1,0.5,2,0.9,3,1.3
	c2.2,1.1,4.1,2.6,5.8,4.4c2.7,3.1,5.8,5.8,9.2,8.2c6.5,4.3,12.6,9.3,18.7,14.2c7.7,6.1,15.3,12.3,22.9,18.6
	c-5.2-6.9-10.4-14.7-11.9-23.4c-0.5-3-0.4-6.1-1-9.2c-1.1-5.2-3.6-9.9-7.2-13.7l5.9-2.3c2-0.8,4.3-2.1,6.4-2.2
	c4.2-0.3,8.9,0.7,13.1,1c-0.6,1.3-1.8,2.2-3.2,2.5c7.5,1.5,14.4,4.9,21.9,6.5c-1.1-2.8-2.4-5.7-3.4-8.6c-0.4-0.8-0.5-1.8-0.1-2.6
	c0.5-1.1,1.1-1,1.3-2.1c0.2-2.2-1.8-4.2-2.5-6.1c-1-2.8-0.4-7.3-0.5-10.3l-1.4-39.5l-1.4-39.5l-0.2-4.4c0-1.2,0.3-3.9-0.2-5
	c-0.6-1.4-5.3-1.8-7-2.3c-3.3-1-6.6-1.7-10-2c-2.1-0.2-6.1-0.6-7.3-2.4c-0.8-1.2-1.1-3.5-1.5-4.9c-0.6-1.8,0-2,1.3-3.2
	c4.1-3.7,9.3-6.2,13.8-9.5c-1.8,0.1-3.6,0.5-5.3,1.1c-1.2,0.5-2.5,1-3.6,1.7c-2.4,1.1-5,1.9-7.6,2.2c0.5-0.3,1.3-0.8,2.1-1.3
	c4.2-2.3,7.2-3.1,7.1-3.4s-4.7,0.8-6.3,1.2c-4,1-4.5,1.2-8.6,2.2c-3.5,0.9-4,0.9-6.5,1.6c-3.3,0.9-3.1,1.1-4.8,1.4
	c-2.4,0.5-3.5,0.3-6.5,1c-1.2,0.3-1.9,0.5-2.7,0.7c-3.2,0.9-6.5,1.6-9.9,2.1c-6.7,1-5.3-0.1-12.2,0.9c-2.1,0.3-4.4,0.7-5.4-0.5
	c-0.6-0.8,0-1.4-0.6-3.5c-0.5-1.5-1.3-3-2.2-4.3c-0.5-0.7-0.9-1.5-1.3-2.4c-0.6-1.4-0.3-1.7-0.7-2.1c-1-1-3.2,0.4-6.1,0.7
	c-0.7,0.1-1.4,0.2-2.1,0.5c-0.6,0.2-1.1,0.5-1.4,1c-1.5,1.5-2.8,1.6-4.8,2.1c-0.6,0.1-1.2,0.2-1.8,0.5c-0.9,0.8,0,0-0.4,0.7
	c-0.7,1-0.2,1.5-1.8,1.8c-2.5,0.4-5.2-0.1-7.8,0.1c-2.2,0.3-4.3,0.9-6.3,1.8c-5,1.8-10.4,1.8-15.4,0.1c-0.4,1.8,0.4,3.6,2,4.4
	c-2.3-0.5-6.9-2-9.1-0.4c-1.4,1-1.7,1.9-3.8,1.4c-1.8-0.4-3.4-2-3-4c-1.1-0.1-2.8,0.8-3.6,0c-0.5-0.6-0.5-1.5,0.1-2
	c0.3-0.2,0.6-0.4,1-0.4c-1.1-0.6-2.2-1.1-3.4-1.6c-1.4-0.6-2.1-0.8-3.7-1.5c-1-0.4-1.7-0.8-2.4-1.2l-5.9-2.8
	c0.9,1.5,2.4,6.8,0.4,8.3c-0.3,0.2-0.7,0.3-1.1,0.4c-3.1,0.4-5.8-2.8-6.3-3.4l-0.6,0.7c-0.5-0.7-1.2-1.2-2-1.5c-1-0.3-1.6,0-2.2-0.5
	s-0.2-1.4-0.9-2.2c-0.7-0.5-1.4-0.9-2.2-1.1c-1.2-0.5-3.4-0.4-4.4-1.1s-1.1-2.5-0.7-3.6c-1.9,1-3.5,2.5-4.6,4.4
	c-1.9-1.2-4.2-1.7-6.4-1.3c0.1-0.3,0.1-0.6,0.1-0.9c0-0.4-0.2-0.9-0.4-1.2l-2.5-0.9l-5.6-2.1c-0.7,2.2-1.8,4.4-3.2,6.2
	c-0.7,0.9-1.4,1.7-2.2,2.5c-0.3,0.3-2.1,1.4-2.2,1.9s0.6,1.2,0.6,1.7c0.1,1.6,0.5,0.4-0.4,1.2s-2.7,1.3-3.8,2.1
	c-0.7,0.5-1.9,2-2.6,2.2c-0.9,0.3-2.7-1-3.6-1.6c-2.5-1.4-5-2.9-7.5-4.5c-1.1-0.7-2.2-1.5-3.3-2.2c-0.6-0.4-2.8-2.5-3.5-2.5
	s-2.3,1.9-2.7,2.4c-1.1,1-2,2.1-2.9,3.3c-0.6,0.8-1.5,1.7-1.5,2.7c0,1.7,1,1.5-0.1,3.2c-2.9,4.3-6.7,7.9-11.2,10.4
	c-1.6,0.9-1.8,0.6-1.5,2.6l0.6,4.4l1.2,9.4L60.1,221.3z M268.2,108.3c1.7-0.5,4-0.8,4.2-0.3c0.1,0.2-0.4,0.6-0.7,0.8
	c-0.8,0.4-1.3,0-2.3,0.3c-0.7,0.2-0.6,0.4-1.8,0.9c-1.2,0.6-2.6,0.8-4,0.6C265,109.5,266.5,108.8,268.2,108.3z M234.9,116.2
	c-0.7-2.2,9.4-1.9,10.5-2c0.6,0,1.3-0.2,1.9-0.3c1-0.3,1.9-0.8,2.8-1.4c2.4-1.4,5.4-1.2,5.5-0.8c0,0.2-0.5,0.4-4.1,2
	c-3.4,1.4-5.1,2.2-5.4,2.3C244.8,116.1,234.9,116.4,234.9,116.2L234.9,116.2z M228.5,233.9c0.8-0.8,1.4,0,2,0.4l1.3,1.5
	C231.6,236.7,226.7,235.9,228.5,233.9z M219.1,113.3c1.4,0.5,1,2.2,0.4,3.2c-0.3-1.2-1.4-1.5-1.7-2.4c-0.2-0.4-0.5-0.1-0.3-0.6
	S218.8,113.2,219.1,113.3L219.1,113.3z M204.1,106.6c5.3,0.2,6.5,0.4,6.5,0.6s-1.7,0.3-3.8,1.2c-1.1,0.5-2.1,1.1-3,1.8
	c0.1-0.6,0.2-1.1,0.3-1.8S204.1,107.2,204.1,106.6L204.1,106.6z M191.9,247.8c1.2-2.7,4.2-4.3,7-4.7c-0.7,2-1.5,4.7-3.7,5.4
	c-0.7,0.2-1.3-0.1-1.9,0.4c-0.5,0.4-0.6,1.1-1,1.4C190.7,251.5,191.6,248.5,191.9,247.8L191.9,247.8z M182.8,113.1
	c2.3-2.1,5.2-1.3,7.9-2.6c0.1,2.8-2.2,1.9-4,2.8c-2,1-3,1.9-5.5,1.5C181.7,114.3,182.2,113.7,182.8,113.1z M173,247.3
	c2,1.7,1.6,4.5,2.6,6.7c0.5,0.9,0.8,1.9,0.8,2.9c0,0.6-0.5,2.8-1.6,2.1s-1.3-4.8-1.5-5.9C172.8,251.2,172.7,249.2,173,247.3
	L173,247.3z M149.8,111.2c0.2-0.3,3,1,2.9,1.6c0,0.2-0.4,0.2-0.6,0.2C150.8,113.1,149.6,111.4,149.8,111.2z M136.1,232.1
	c1.4-1.4,3-2.4,4.4-3.7c1.1-1,2.7-4.9,3.4-5s11.5,2.9,11.5,3c-0.1,1.3-9.3-1-10.8-0.5c-1.7,0.6-2.4,2.6-3.5,3.8
	c-0.5,0.5-5.3,4.6-6,3.7C135,233.1,136.1,232.1,136.1,232.1z M110,102.5c0.8,0.2,2.2,0.4,2.7,1.1c1,1.2,0.2,2.1-1,2.3
	c-2.2,0.3-4.2-1.3-4.4-3.5c0,0,0-0.1,0-0.1C108.2,102.2,109.1,102.3,110,102.5z"/>
<path class="st2" d="M39.5,125.7h271v99h-271V125.7z"/>
<path d="M46.5,132.2h257v86h-257V132.2z"/>
<path class="st2" d="M132,137.2h62L132,213H69.4L132,137.2z M215.8,137.2H246L183.7,213H153L215.8,137.2z M265.8,137.2h15.8
	L219.5,213h-17.1L265.8,137.2z"/>
<circle cx="271.5" cy="119.5" r="8.9"/>
<path class="st2" d="M271.5,114.4c-2.8,0-5.1,2.3-5.1,5.1s2.3,5.1,5.1,5.1c2.8,0,5.1-2.3,5.1-5.1v0
	C276.5,116.7,274.3,114.4,271.5,114.4z M271.5,121.9c-1.3,0-2.4-1.1-2.4-2.4s1.1-2.4,2.4-2.4c1.3,0,2.4,1.1,2.4,2.4
	S272.8,121.9,271.5,121.9L271.5,121.9z"/>
<circle cx="175" cy="119.5" r="8.9"/>
<path class="st2" d="M175,114.4c-2.8,0-5.1,2.3-5.1,5.1s2.3,5.1,5.1,5.1c2.8,0,5.1-2.3,5.1-5.1S177.8,114.4,175,114.4L175,114.4z
	 M175,121.9c-1.3,0-2.4-1.1-2.4-2.4s1.1-2.4,2.4-2.4c1.3,0,2.4,1.1,2.4,2.4S176.3,121.9,175,121.9L175,121.9z"/>
<circle cx="78.8" cy="119.5" r="8.9"/>
<path class="st2" d="M78.8,114.4c-2.8,0-5.1,2.3-5.1,5.1c0,2.8,2.3,5.1,5.1,5.1c2.8,0,5.1-2.3,5.1-5.1S81.6,114.4,78.8,114.4
	C78.8,114.4,78.8,114.4,78.8,114.4z M78.8,121.9c-1.3,0-2.4-1.1-2.4-2.4c0-1.3,1.1-2.4,2.4-2.4c1.3,0,2.4,1.1,2.4,2.4
	S80.2,121.9,78.8,121.9C78.8,121.9,78.8,121.9,78.8,121.9z"/>
<circle cx="78.8" cy="230.2" r="8.9"/>
<path class="st2" d="M78.8,225.1c-2.8,0-5.1,2.3-5.1,5.1c0,2.8,2.3,5.1,5.1,5.1c2.8,0,5.1-2.3,5.1-5.1S81.6,225.1,78.8,225.1
	C78.8,225.1,78.8,225.1,78.8,225.1z M78.8,232.6c-1.3,0-2.4-1.1-2.4-2.4c0-1.3,1.1-2.4,2.4-2.4c1.3,0,2.4,1.1,2.4,2.4
	S80.2,232.6,78.8,232.6C78.8,232.6,78.8,232.6,78.8,232.6z"/>
<circle cx="175" cy="230.2" r="8.9"/>
<path class="st2" d="M175,225.1c-2.8,0-5.1,2.3-5.1,5.1s2.3,5.1,5.1,5.1s5.1-2.3,5.1-5.1S177.8,225.1,175,225.1L175,225.1z
	 M175,232.6c-1.3,0-2.4-1.1-2.4-2.4s1.1-2.4,2.4-2.4c1.3,0,2.4,1.1,2.4,2.4S176.3,232.6,175,232.6L175,232.6z"/>
<circle cx="271.5" cy="230.2" r="8.9"/>
<path class="st2" d="M271.5,225.1c-2.8,0-5.1,2.3-5.1,5.1s2.3,5.1,5.1,5.1c2.8,0,5.1-2.3,5.1-5.1c0,0,0,0,0,0
	C276.5,227.4,274.3,225.1,271.5,225.1z M271.5,232.6c-1.3,0-2.4-1.1-2.4-2.4s1.1-2.4,2.4-2.4s2.4,1.1,2.4,2.4
	S272.8,232.6,271.5,232.6L271.5,232.6z"/>
</svg>
