<?xml version="1.0" encoding="utf-8"?>
<!-- Generator: Adobe Illustrator 24.0.2, SVG Export Plug-In . SVG Version: 6.00 Build 0)  -->
<svg version="1.1" id="Layer_1" xmlns="http://www.w3.org/2000/svg" xmlns:xlink="http://www.w3.org/1999/xlink" x="0px" y="0px"
	 viewBox="40 40 270 270" style="enable-background:new 0 0 350 350;" xml:space="preserve">
<style type="text/css">
	.st0{fill:#906F79;}
	.st1{fill:#FFFFFF;}
	.st2{fill:url(#SVGID_1_);}
	.st3{fill:url(#SVGID_2_);}
	.st4{fill:url(#SVGID_3_);}
	.st5{fill:url(#SVGID_4_);}
	.st6{fill:url(#SVGID_5_);}
	.st7{fill:url(#SVGID_6_);}
	.st8{fill:url(#SVGID_7_);}
</style>
<path d="M64.9,245h-8v-15h3v-15h7v-16h7v-16h-9v-16h7v-16h6v-16h3v-15h4v-15h-16V90h-7V75h198v15h23v15h8v15h-4v15h5v16h-6v16h-7v16
	h-8v16h-4v16h7v15h-12v15h16v15h-6v15h21v5h-214v-5h6v-15h-20L64.9,245z M52.9,70h214v5h-214L52.9,70z"/>
<path class="st0" d="M110.9,260h161v10h-161L110.9,260z M80.9,199h19v-16h-21v-16h164v16h12v16h12v16h-12v15h-7v15h12v15h-173v-15
	h-10v-15h-8v-15h12L80.9,199z M224.9,90h49v15h4v15h-9v15h10v16h-10v16h-185v-16h12v-16h18v-15h-10v-15h-8V90h-24v-9h153V90z"/>
<path class="st1" d="M121.9,167c-2.2-5.2-2-15-2-15v-1h5.1c0-2.6,0.3-9.9,2.9-16h3.9c0.6-1.4,1.3-2.7,2.1-4c3.1-4.6,7.7-8.1,13-10
	c0,0,0.1-0.4,0.4-1h83.3c0.3,0.6,0.4,1,0.4,1c5.3,1.9,9.9,5.4,13,10c0.9,1.3,1.6,2.6,2.1,4h-4c2.5,6.1,2.9,13.4,2.9,16h-5.1v1
	c0,0,0.1,9.8-2,15h-8c-2.1,5.2-8,16-8,16l-1,9c0,0,7,2.9,15,7h-3c5.2,2.6,9.1,7.9,9.7,16h-2.9c0.2,5.1-0.5,10.2-2.2,15h-5.1
	c-1.2,3.8-2.7,7.5-4.6,11c-0.7,1.4-1.4,2.7-2.2,3.9h10.8c-9.9,15.7-24.5,17.1-31.8,13c-8.2-4.7-20-11.8-21.8-12.9h-0.4l-10.8,7.9
	L161,245h-0.4c-1.8,1.1-13.5,8.2-21.8,12.9c-7.3,4.1-21.8,2.7-31.7-12.9H96.2c-0.8-1.2-1.5-2.6-2.3-4c-1.8-3.5-3.3-7.2-4.6-11h5.1
	c-1.7-4.8-2.4-9.9-2.2-15h2.9c0.6-8.1,4.5-13.4,9.7-16h3c8-4.1,15-7,15-7l-1-9l-0.1-0.1c-0.7-1.2-5.9-11-7.9-15.9H121.9z M155.3,105
	h-10c6.2-4.4,15.4-8,28.6-8h2c13,0.1,22.1,3.6,28.3,8h10c5.4,3.7,9.7,8.9,12.3,15h-83.3C145.7,113.9,149.9,108.7,155.3,105z"/>
<path d="M225.8,260c-4.2,2.3-9,3.3-13.8,2.9c-3-0.4-5.9-1.4-8.6-2.9H225.8z M142.4,260l-1.1,0.6c-6.3,3.5-13.8,2.9-20.7-0.6H142.4z
	 M184,244.9c-0.5-5-0.1-10,1.3-14.9h4.1c-1.6,4.8-2.1,9.9-1.5,14.9h0.6c2.4,1.5,4.9,2.9,7.3,4.4c-0.4-1.4-0.8-2.9-0.9-4.4h3.9
	c0.4,2.9,1.4,5.6,3.1,8c1.5,0.8,3,1.7,4.5,2.5c6.1,3.3,14.5,0.9,20.2-3.6c2.5-2,4.7-4.3,6.5-6.9h6.9l-0.1,0.1
	c-3.6,6.3-8.9,11.5-15.3,14.9h-22.4c-1.8-0.9-3.5-2-5.3-3c-4.2-2.4-8.3-4.9-12.5-7.4l-1.6-1l-11.1,8.1l-11.1-8.1
	c-6.4,3.9-12.8,7.7-19.3,11.4h-21.8c-6.6-3.5-12.1-8.6-15.9-15h7c4.9,6.9,12.5,12.2,20.5,12c3.7-0.1,7.1-2,10.5-4
	c1.7-2.3,2.7-5,3.1-7.9h-0.6l6-3.6l4.8,3.5h11l5.9,4.3l5.7-4.1h-10.7l4.9-3.6l5.8,3.5l0.1-0.1L184,244.9L184,244.9z M154.7,245h-6.1
	c-0.2,1.4-0.5,2.8-0.9,4.2C150.1,247.8,152.4,246.4,154.7,245z M92,215c0.2-4.8,2-9.5,5-13.3c0.8-1,1.7-1.9,2.6-2.7h3
	c2.8-2.1,5.8-3.8,9-5.2c2.6-1.2,5.2-2.4,7.8-3.6l0.2-0.1c-0.3-2.3,0-5-1-6.8l-0.2-0.4l-0.1-0.1c-2.8-5.2-5.8-10.3-7.6-15.9h6.4
	l0.2,0.4c2.3,5,4.9,9.9,7.5,14.7l1.3,11.8c-2.7,1.2-5.5,2.4-8.2,3.6c1.6,0.4,3.1,0.9,4.6,1.5h-3c6.5,2.8,13.1,8.4,18.1,16h-2.9
	c0.6,0.9,1.2,1.9,1.8,2.9c2.2,3.8,3.9,7.9,5.1,12.1h-4.1c-1.1-3.5-2.6-6.9-4.4-10.1c-1-1.7-2.1-3.3-3.2-4.9h2.9
	c-7.6-10.3-18-15.8-25.8-13.7l-0.9,0.5c-4.7,2.5-7.2,7.8-7.8,13.2h-2.8c-0.2,1.9-0.2,3.8,0,5.7c0.4,3.2,1,6.3,2,9.3h-5.1
	c1.6,4.9,3.8,9.7,6.7,14c0.2,0.3,0.4,0.7,0.7,1h-7c-0.7-1.1-1.3-2.3-1.9-3.5c-0.4-0.9-0.9-1.8-1.3-2.8c-1.3-2.8-2.4-5.7-3.4-8.7h5.1
	c-1.6-4.8-2.4-9.9-2.2-15L92,215L92,215z M137.8,245h-3.9c0.6-5,0.1-10.2-1.5-15h4.1C138,234.9,138.4,240,137.8,245z M200.2,215
	c5.1-7.6,11.6-13.2,18.1-16h3c1.5-0.7,3-1.2,4.6-1.5c-1.8-0.8-3.7-1.6-5.5-2.4l-2.7-1.2l1.2-10.9l0.1-0.9c2.7-5,5.4-9.7,7.4-15.1
	h6.5c-0.6,2.1-1.4,4.1-2.4,6c-1.6,3.4-3.4,6.7-5.1,10l-0.2,0.4l-0.3,0.5l-0.7,6.2c5.9,2.6,12.1,4.9,16.8,8.9h-3
	c3.2,2.6,5.6,6.2,6.7,10.2c0.5,1.9,0.9,3.8,1,5.8h-2.9c0.3,5.1-0.3,10.2-1.9,15h-5.1c-1.6,5.2-3.9,10.3-6.7,15h-6.9
	c3.2-4.6,5.7-9.6,7.2-15h5.1c0.7-2.4,1.3-4.8,1.7-7.2c0.5-2.6,0.6-5.2,0.4-7.8h2.9c-0.5-5.3-2.6-10.3-7.4-13l-1.1-0.6
	c-7.8-2.2-18.2,3.4-25.9,13.7h-2.9c-1.2,1.6-2.2,3.2-3.2,4.9c-1.9,3.2-3.3,6.6-4.4,10.1h-4.1c1.2-4.2,2.9-8.3,5.1-12.1
	c0.6-1,1.2-2,1.8-2.9L200.2,215L200.2,215z M148.5,215l12-12l-4-4h3l-11.2-11.2l8.5-8.5l15.2,15.2l15.2-15.2l8.5,8.5L184.4,199h-3
	l-4,4l12,12h-2.9l3.2,3.2l-8.5,8.5L169.5,215h2.9l-3.5-3.5l-3.5,3.5h-2.9l-11.7,11.7l-8.5-8.5l3.2-3.2H148.5L148.5,215z M133.6,167
	c-1.9-5.1-2.8-10.5-2.7-16h5.1c0-8.7,3-13.4,6.1-16h3.9c2-1.7,4.4-2.7,6.9-3h4.1c3.2,0,6.4,0.8,9.2,2.2l1.5,0.8h-3.9l21.3,11
	l21.2-11h3.9l1.5-0.8c2.8-1.5,6-2.2,9.2-2.2h4.1c2.6,0.3,5,1.3,6.9,3h-3.9c3.1,2.6,6.1,7.3,6.1,16h-5.1c0.2,5.5-0.8,10.9-2.7,16h-8
	c-3.2,7.6-9,11.5-16.3,11.5c-11.4,0-17-7.5-17-7.5c-2.2-1.7-4.6-3-7.1-4h8c-1.6-0.6-3.2-1-4.9-1h-2c-1.7,0-3.3,0.4-4.9,1h-8
	c-2.5,1-4.9,2.3-7.1,4c0,0-5.6,7.5-17,7.5c-7.4,0-13.1-3.8-16.3-11.5H133.6L133.6,167z M121.9,151c-0.1-5.5,0.8-10.9,2.7-16h3.9
	c1.2-3,2.9-5.9,5-8.3c2.3-2.7,5.1-4.9,8.3-6.7h8.8c-0.4,0.9-0.7,1.8-0.7,1.8l-0.5,1.6c-6,1.8-11,6-13.8,11.6h-3.9
	c-2.5,5-3.8,10.4-3.7,16h-5.1v1c-0.1,5.1,0.3,10.4,2.3,15h-6.4c-0.6-2-1.1-4-1.4-6c-0.4-3.3-0.7-6.7-0.7-10H121.9L121.9,151z
	 M242,151c0.1-2.7-0.2-5.3-0.7-7.9c-0.5-2.8-1.4-5.5-2.7-8.1h3.9c-2.5-5.2-6.9-9.2-12.4-11.1l-1.6-0.5c-0.4-1.2-0.8-2.3-1.4-3.4h8.9
	c5.9,3.4,10.4,8.7,12.8,15h-3.9c2,5.1,3.1,10.5,3.1,16h-5.1v2c0,4.7-0.7,9.5-2.1,14h-6.5c1.8-4.8,2.6-9.9,2.6-15v-1L242,151L242,151
	z M150.7,105h-10c9.5-7.9,23.1-11.1,35.7-11c11.8,0.2,23.8,3.9,32.6,11h10c4.5,3.6,8.1,8.3,10.3,13.6c0,0,1.4,0.7,2.4,1.2l0.4,0.2
	h-8.9c-3.1-6.7-8.9-11.7-15.9-15h-10c-7.3-3.4-15.3-5.1-23.4-5c-7.8-0.1-15.5,1.6-22.5,5h10c-6.1,3-11.2,7.8-14.3,13.8
	c-0.2,0.4-0.4,0.8-0.5,1.2h-8.8c0.9-0.5,1.8-0.9,2.8-1.3c1.2-2.6,2.6-5.1,4.2-7.4C146.5,108.9,148.5,106.8,150.7,105L150.7,105z"/>
<linearGradient id="SVGID_1_" gradientUnits="userSpaceOnUse" x1="316.8667" y1="59.2742" x2="317.5667" y2="59.2742" gradientTransform="matrix(127.14 0 0 8.57 -40115.3203 -405.9799)">
	<stop  offset="0" style="stop-color:#FFFFFF;stop-opacity:0"/>
	<stop  offset="0.5" style="stop-color:#FFFFFF;stop-opacity:0.5"/>
	<stop  offset="1" style="stop-color:#FFFFFF;stop-opacity:0"/>
</linearGradient>
<path class="st2" d="M171.9,99h89v6h-89V99z"/>
<linearGradient id="SVGID_2_" gradientUnits="userSpaceOnUse" x1="317.5433" y1="48.721" x2="318.2433" y2="48.721" gradientTransform="matrix(150 0 0 21.43 -47527.1406 -931.5901)">
	<stop  offset="0" style="stop-color:#FFFFFF;stop-opacity:0"/>
	<stop  offset="0.5" style="stop-color:#FFFFFF;stop-opacity:0.75"/>
	<stop  offset="1" style="stop-color:#FFFFFF;stop-opacity:0"/>
</linearGradient>
<path class="st3" d="M103.9,105h105v15h-105L103.9,105z"/>
<linearGradient id="SVGID_3_" gradientUnits="userSpaceOnUse" x1="314.074" y1="47.4392" x2="314.774" y2="47.4392" gradientTransform="matrix(71.43 0 0 22.86 -22204.4805 -925.4601)">
	<stop  offset="0" style="stop-color:#FFFFFF"/>
	<stop  offset="1" style="stop-color:#FFFFFF;stop-opacity:0"/>
</linearGradient>
<path class="st4" d="M229.9,151h50v16h-50V151z"/>
<linearGradient id="SVGID_4_" gradientUnits="userSpaceOnUse" x1="308.7799" y1="47.1391" x2="309.4799" y2="47.1391" gradientTransform="matrix(32.86 0 0 22.86 -10043.25 -902.6)">
	<stop  offset="0" style="stop-color:#FFFFFF;stop-opacity:0"/>
	<stop  offset="1" style="stop-color:#FFFFFF"/>
</linearGradient>
<path class="st5" d="M102.9,167h23v16h-23V167z"/>
<linearGradient id="SVGID_5_" gradientUnits="userSpaceOnUse" x1="314.0429" y1="46.8395" x2="314.7429" y2="46.8395" gradientTransform="matrix(68.57 0 0 22.86 -21338.3691 -879.7502)">
	<stop  offset="0" style="stop-color:#FFFFFF;stop-opacity:0"/>
	<stop  offset="0.5" style="stop-color:#FFFFFF;stop-opacity:0.75"/>
	<stop  offset="1" style="stop-color:#FFFFFF;stop-opacity:0"/>
</linearGradient>
<path class="st6" d="M195.9,183h48v16h-48V183z"/>
<linearGradient id="SVGID_6_" gradientUnits="userSpaceOnUse" x1="312.3397" y1="47.0386" x2="313.0396" y2="47.0386" gradientTransform="matrix(54.29 0 0 16.86 -16743.4492 -542.1701)">
	<stop  offset="0" style="stop-color:#FFFFFF"/>
	<stop  offset="1" style="stop-color:#FFFFFF;stop-opacity:0"/>
</linearGradient>
<path class="st7" d="M212.9,245h38v11.8h-38V245z"/>
<linearGradient id="SVGID_7_" gradientUnits="userSpaceOnUse" x1="316.1931" y1="46.5208" x2="316.8931" y2="46.5208" gradientTransform="matrix(92.86 0 0 21.43 -29294.6816 -774.44)">
	<stop  offset="0" style="stop-color:#FFFFFF;stop-opacity:0"/>
	<stop  offset="0.5" style="stop-color:#FFFFFF;stop-opacity:0.75"/>
	<stop  offset="1" style="stop-color:#FFFFFF;stop-opacity:0"/>
</linearGradient>
<path class="st8" d="M66.9,215h65v15h-65L66.9,215z"/>
</svg>
