<svg xmlns="http://www.w3.org/2000/svg" xmlns:xlink="http://www.w3.org/1999/xlink" viewBox="0 0 240 210"><defs><style>.cls-1{fill:#906f79;}.cls-2{fill:#fff;}.cls-3{fill:url(#linear-gradient);}.cls-4{fill:url(#linear-gradient-2);}.cls-5{fill:url(#linear-gradient-3);}.cls-6{fill:url(#linear-gradient-4);}.cls-7{fill:url(#linear-gradient-5);}.cls-8{fill:url(#linear-gradient-6);}.cls-9{fill:url(#linear-gradient-7);}</style><linearGradient id="linear-gradient" x1="263.97" y1="-10.73" x2="264.67" y2="-10.73" gradientTransform="translate(-33442.51 123.92) scale(127.14 8.57)" gradientUnits="userSpaceOnUse"><stop offset="0" stop-color="#fff" stop-opacity="0"/><stop offset="0.5" stop-color="#fff" stop-opacity="0.5"/><stop offset="1" stop-color="#fff" stop-opacity="0"/></linearGradient><linearGradient id="linear-gradient-2" x1="264.64" y1="-21.28" x2="265.34" y2="-21.28" gradientTransform="translate(-39645.04 498.51) scale(150 21.43)" gradientUnits="userSpaceOnUse"><stop offset="0" stop-color="#fff" stop-opacity="0"/><stop offset="0.5" stop-color="#fff" stop-opacity="0.75"/><stop offset="1" stop-color="#fff" stop-opacity="0"/></linearGradient><linearGradient id="linear-gradient-3" x1="261.17" y1="-22.56" x2="261.87" y2="-22.56" gradientTransform="translate(-18478.73 604.74) scale(71.43 22.86)" gradientUnits="userSpaceOnUse"><stop offset="0" stop-color="#fff"/><stop offset="1" stop-color="#fff" stop-opacity="0"/></linearGradient><linearGradient id="linear-gradient-4" x1="255.88" y1="-22.86" x2="256.58" y2="-22.86" gradientTransform="translate(-8357.86 627.6) scale(32.86 22.86)" gradientUnits="userSpaceOnUse"><stop offset="0" stop-color="#fff" stop-opacity="0"/><stop offset="1" stop-color="#fff"/></linearGradient><linearGradient id="linear-gradient-5" x1="261.14" y1="-23.16" x2="261.84" y2="-23.16" gradientTransform="translate(-17763.92 650.45) scale(68.57 22.86)" xlink:href="#linear-gradient-2"/><linearGradient id="linear-gradient-6" x1="259.44" y1="-22.96" x2="260.14" y2="-22.96" gradientTransform="translate(-13924.41 568.03) scale(54.29 16.86)" xlink:href="#linear-gradient-3"/><linearGradient id="linear-gradient-7" x1="263.29" y1="-23.48" x2="263.99" y2="-23.48" gradientTransform="translate(-24435.29 655.66) scale(92.86 21.43)" xlink:href="#linear-gradient-2"/></defs><title>Asset 3</title><g id="Layer_2" data-name="Layer 2"><g id="Layer_1-2" data-name="Layer 1"><path d="M12,175H4V160H7V145h7V129h7V113H12V97h7V81h6V65h3V50h4V35H16V20H9V5H207V20h23V35h8V50h-4V65h5V81h-6V97h-7v16h-8v16h-4v16h7v15H209v15h16v15h-6v15h21v5H26v-5h6V190H12ZM0,0H214V5H0Z"/><path class="cls-1" d="M58,190H219v10H58ZM28,129H47V113H26V97H190v16h12v16h12v16H202v15h-7v15h12v15H34V175H24V160H16V145H28ZM172,20h49V35h4V50h-9V65h10V81H216V97H31V81H43V65H61V50H51V35H43V20H19V11H172Z"/><path class="cls-2" d="M69,97c-2.15-5.17-2-15-2-15V81h5.1c0-2.61.33-9.86,2.87-16h3.94a21.34,21.34,0,0,1,2.14-4,26.16,26.16,0,0,1,13-10s.1-.36.35-1h83.29a10.32,10.32,0,0,1,.36,1,26.16,26.16,0,0,1,13,10,21.34,21.34,0,0,1,2.14,4h-4c2.54,6.14,2.85,13.39,2.87,16H187v1s.15,9.83-2,15h-8c-2.15,5.16-8,16-8,16l-1,9s7,2.94,15,7h-3c5.22,2.64,9.15,7.92,9.72,16h-2.89a40.46,40.46,0,0,1-2.16,15h-5.11A76.49,76.49,0,0,1,175,171a38.32,38.32,0,0,1-2.16,3.86h10.78c-9.86,15.69-24.47,17.13-31.75,13-8.24-4.67-20-11.8-21.78-12.86h-.41l-10.81,7.86L108.1,175h-.41c-1.76,1.07-13.54,8.2-21.78,12.86C78.6,192,64.1,190.56,54.2,175h-11q-1.17-1.86-2.25-4a75.42,75.42,0,0,1-4.56-11h5.11a40.46,40.46,0,0,1-2.16-15h2.89c.57-8.08,4.5-13.36,9.72-16h3c8-4.06,15-7,15-7l-1-9-.07-.12C68.28,111.67,63,101.88,61,97Zm33.42-62h-10c6.22-4.41,15.35-8,28.58-8h2c13,.07,22.08,3.64,28.32,8h10a34.75,34.75,0,0,1,12.32,15H90.35A33.91,33.91,0,0,1,102.42,35Z"/><path d="M172.94,190a25.21,25.21,0,0,1-13.84,2.88,23.26,23.26,0,0,1-8.57-2.88Zm-83.39,0-1.07.61c-6.33,3.55-13.82,2.86-20.72-.61Zm41.55-15.14A38.64,38.64,0,0,1,132.39,160h4.11A34.66,34.66,0,0,0,135,174.86h.61c2.42,1.47,4.85,2.94,7.29,4.39a26.19,26.19,0,0,1-.94-4.39h3.93a17.52,17.52,0,0,0,3.12,8q2.22,1.27,4.46,2.5c6.12,3.29,14.54.88,20.18-3.6a35.43,35.43,0,0,0,6.53-6.87h6.9L187,175a38.49,38.49,0,0,1-15.25,14.88H149.37c-1.79-.94-3.54-2-5.29-3q-6.26-3.66-12.46-7.4l-1.6-1-11.15,8.11-11.15-8.11c-6.38,3.85-12.81,7.69-19.3,11.4H66.62a40.82,40.82,0,0,1-15.93-15h7c4.86,6.9,12.5,12.24,20.53,12,3.66-.12,7.08-2,10.48-4A17.37,17.37,0,0,0,91.8,175h-.61l6-3.6,4.83,3.51h11l5.9,4.29,5.71-4.15H113.9l4.95-3.6,5.82,3.54.1-.07h6.33Zm-29.27.14h-6.1a27.06,27.06,0,0,1-.9,4.18ZM39.1,145a23.33,23.33,0,0,1,5-13.31A17.67,17.67,0,0,1,46.74,129h3a44.78,44.78,0,0,1,9-5.19q3.87-1.84,7.8-3.59l.22-.1c-.26-2.3,0-5-1-6.75l-.2-.38-.07-.12c-2.78-5.17-5.82-10.31-7.63-15.88h6.37l.15.35c2.28,5,4.88,9.89,7.49,14.74l1.31,11.79c-2.74,1.17-5.48,2.36-8.19,3.59A26.92,26.92,0,0,1,69.56,129h-3c6.54,2.82,13,8.4,18.1,16H81.77q.95,1.41,1.8,2.91A51.63,51.63,0,0,1,88.67,160H84.56a49.09,49.09,0,0,0-4.43-10.1,51,51,0,0,0-3.22-4.9H79.8c-7.63-10.26-18-15.79-25.77-13.7l-.91.47C48.4,134.24,46,139.51,45.36,145H42.53a25.59,25.59,0,0,0,0,5.67,48.78,48.78,0,0,0,2,9.33H39.48a58.7,58.7,0,0,0,6.69,14c.22.34.45.67.68,1h-7c-.67-1.13-1.31-2.3-1.93-3.5-.45-.92-.88-1.84-1.3-2.77A80.06,80.06,0,0,1,33.23,160h5.11a41.53,41.53,0,0,1-2.18-15Zm45.83,30H81a34.36,34.36,0,0,0-1.46-15h4.11A38.58,38.58,0,0,1,84.93,175Zm62.4-30c5-7.6,11.57-13.18,18.1-16h3a27.15,27.15,0,0,1,4.64-1.54c-1.84-.82-3.68-1.61-5.53-2.41l-2.74-1.17L166,113l.1-.91c2.67-5,5.43-9.73,7.36-15.09h6.47a40.66,40.66,0,0,1-2.37,6c-1.65,3.37-3.38,6.69-5.13,10l-.2.38-.28.53-.69,6.22c5.93,2.61,12.13,4.94,16.81,8.87h-3a20.31,20.31,0,0,1,6.72,10.24,29.56,29.56,0,0,1,1,5.76H189.9A40.77,40.77,0,0,1,188,160h-5.11a72.2,72.2,0,0,1-6.68,15h-6.92a49.67,49.67,0,0,0,7.23-15h5.11a61.69,61.69,0,0,0,1.7-7.23,30.19,30.19,0,0,0,.35-7.77h2.88c-.49-5.34-2.65-10.34-7.43-13l-1.15-.63c-7.81-2.19-18.23,3.35-25.9,13.66h-2.89a51,51,0,0,0-3.21,4.9,49.09,49.09,0,0,0-4.43,10.1h-4.11a51.63,51.63,0,0,1,5.1-12.09q.87-1.5,1.8-2.91h2.89Zm-51.78,0,12-12-4-4h3l-11.2-11.2,8.49-8.49,15.2,15.2,15.2-15.2,8.49,8.49L131.49,129h-3l-4,4,12,12H133.6l3.2,3.2-8.49,8.49L116.63,145h2.89L116,141.49,112.49,145H109.6L97.91,156.69l-8.49-8.49,3.2-3.2h2.93ZM80.73,97A42,42,0,0,1,78,81H83.1c0-8.72,3-13.44,6.05-16H93.1a13.16,13.16,0,0,1,7-3h4a20.07,20.07,0,0,1,9.21,2.24l1.46.76h-3.94L132.1,76l21.21-11h3.94l1.46-.76A20.07,20.07,0,0,1,167.92,62H172a13.16,13.16,0,0,1,7,3h-3.94c3.09,2.56,6,7.28,6,16H176a42,42,0,0,1-2.69,16h-8c-3.17,7.65-9,11.49-16.31,11.49-11.39,0-17-7.49-17-7.49a29.8,29.8,0,0,0-7.11-4h8A14.13,14.13,0,0,0,128,96h-2a14.13,14.13,0,0,0-4.89,1h-8a29.8,29.8,0,0,0-7.11,4s-5.61,7.49-17,7.49c-7.36,0-13.14-3.84-16.31-11.49h8ZM69,81a44.3,44.3,0,0,1,2.73-16h3.94a28.71,28.71,0,0,1,5-8.35A30,30,0,0,1,88.88,50h8.79c-.4.93-.73,1.81-.73,1.81l-.48,1.61A22.71,22.71,0,0,0,82.69,65H78.75a34.31,34.31,0,0,0-3.7,16H70v1c0,5.13.27,10.39,2.27,15H65.9a33.25,33.25,0,0,1-1.38-6,76.11,76.11,0,0,1-.66-10H69ZM189.1,81a35,35,0,0,0-.72-7.9A28.58,28.58,0,0,0,185.7,65h3.94a21.53,21.53,0,0,0-12.41-11.11l-1.57-.46A26.54,26.54,0,0,0,174.31,50h8.89A29.38,29.38,0,0,1,196,65h-3.94a43.17,43.17,0,0,1,3,16H190v2A49.2,49.2,0,0,1,188,97h-6.47A41.93,41.93,0,0,0,184,82V81h5.06ZM97.76,35h-10c9.54-7.89,23.07-11.1,35.7-11,11.8.16,23.82,3.87,32.55,11h10a35,35,0,0,1,10.32,13.57s1.4.66,2.42,1.19l.45.24h-8.89c-3.15-6.65-8.86-11.66-15.85-15h-10A55,55,0,0,0,121,30a50.84,50.84,0,0,0-22.52,5h10A31.76,31.76,0,0,0,94.2,48.82c-.18.36-.37.77-.54,1.18H84.87a28.1,28.1,0,0,1,2.77-1.32,52,52,0,0,1,4.23-7.44A34.54,34.54,0,0,1,97.77,35Z"/><path class="cls-3" d="M119,29h89v6H119Z"/><path class="cls-4" d="M51,35H156V50H51Z"/><path class="cls-5" d="M177,81h50V97H177Z"/><path class="cls-6" d="M50,97H73v16H50Z"/><path class="cls-7" d="M143,113h48v16H143Z"/><path class="cls-8" d="M160,175h38v11.8H160Z"/><path class="cls-9" d="M14,145H79v15H14Z"/></g></g></svg>