<?xml version="1.0" encoding="utf-8"?>
<!-- Generator: Adobe Illustrator 24.0.2, SVG Export Plug-In . SVG Version: 6.00 Build 0)  -->
<svg version="1.1" id="Layer_1" xmlns="http://www.w3.org/2000/svg" xmlns:xlink="http://www.w3.org/1999/xlink" x="0px" y="0px"
	 viewBox="0 0 270 270" style="enable-background:new 0 0 270 270;" xml:space="preserve">
<style type="text/css">
	.st0{fill:#666668;}
	.st1{fill:#FFFFFF;}
	.st2{fill:#3161AD;}
</style>
<path d="M30,30h210v210H30L30,30z"/>
<path class="st0" d="M37,37h196v196H37V37z"/>
<path d="M36.5,70.7l163.3,163l33.9,0.1l-0.1-34.8L70.9,36.6l-34.5-0.2L36.5,70.7z"/>
<path d="M141.8,222.3c6.6-1,12.9-4.2,18.4-8s10.7-8.6,14.1-14.4c4-6.9,2.8-14.8,4.6-22.3c0.9-3.7,2.4-7.3,4.4-10.6
	c2-3.2,4.5-6.1,6.7-9.2c2.3-3.1,4-6.5,5.2-10.2c1.1-3.8,0.9-7.7,1-11.6c0.1-4.2,0.6-8.4,0.4-12.6c-0.1-2.9-0.3-6.6-3-8.2
	c-0.7-0.4-1.5-0.7-2.3-0.8c-0.5,0-1,0-1.4-0.1h-0.4v-1c0-1.5,0.3-2.9,1-4.3c0.9-1.2,1.9-2.3,3-3.3c1.2-1.4,1.9-3.2,1.9-5
	c0.2-5.6,1.1-11.2,1.2-16.9c0-3.7-0.1-7.4-0.6-11.1c-0.2-1.9-0.7-3.7-1.4-5.4c-0.5-0.9-1-1.8-1.6-2.7c-2.2-3.2-5.2-5.8-8.6-7.7
	c-1.3-0.7-2.7-1.3-4.1-1.8c-28-1.2-48.6-1.1-52.8-0.5c-2.5,0.4-5,1-7.4,1.9c-0.3,0.1-1.7,0.7-3.4,1.5c-3.8,1.8-8.8,4.9-16,11.1
	c-3.5,3-9.1,8.2-16.9,15.9c-5.6,5.4-10.7,11.3-15.4,17.5c-4.3,5.9-8.8,12.6-10.7,19.7c-0.9,3.4-0.7,7,1.6,9.7s6.1,3.3,7.7,3.6
	c2.7,0.4,5.4,0,7.9-1l-0.2,17.7c0.4,2.2,1.2,4.2,2.5,6c1.9,2.6,3.4,2.8,5.8,5.1c1.7,1.8,2.7,3.9,4.6,8.1c1.7,3.2,2.9,6.6,3.7,10.1
	c1.1,5.2,0.1,6.3,1.1,10.5c1,4,2.9,6.7,4.9,9.4c5.9,8.1,13.3,12,17.1,14.6C122.6,221.5,132.3,223.7,141.8,222.3z"/>
<path class="st1" d="M189.3,118.5c0.4,0,0.9,0.2,1.2,0.5c0.4,0.3,0.6,0.8,0.8,1.3c0.3,1.1,0.3,10.3,0,22.9c-0.8,3.4-2.4,6.5-4.5,9.3
	c-2.1,2.7-6.7,7.2-8.9,10.6c-0.5,0.8-1,1.6-1,1.6c-0.8,1.4-1.5,2.8-2.1,4.3c-1.8,4.2-1.8,18.7-6.1,27.7c-2.6,5.3-6.4,8.2-14,13.9
	c0,0-7.6,5.6-14.3,6.7l-0.4,0.1c-3.5,0.4-7,0.1-10.4-0.8c-1.9-0.4-6.6-1.7-13.6-6.5c-8.8-6-13.8-9.4-16.5-15.8
	c-2.6-6.3-0.5-9.1-4.3-20.7c-0.8-2.4-1.8-4.8-3-7c-2.1-3.6-4.1-7.1-7.8-10.2c-2.9-2.3-3.5-3.3-3.6-3.8c-0.1-0.2-0.1-0.4-0.2-0.7
	c-0.6-2.7-0.6-14.6-0.5-19.2l20.1-11.6c2.8-1.5,5.8-2.4,8.9-2.6H189.3z"/>
<path d="M182.8,124.1c-5.3,1.3-12.5,3-21.3,4.4c-5.9,1-17.1,2.8-27.6,2.9c-9.4,0.1-24.9-1-44.1-8.9c-1.9,7.3-1.6,14.9,0.9,22
	c8.7,9.5,22.4,12.6,34.3,7.7l10.1-13.6c1.4,2.2,3,4.6,4.8,6.9s3.7,4.8,5.5,6.9c2.8,0.9,14,3.9,25.5-1.9c4.6-2.3,8.6-5.7,11.6-9.9
	C183.4,135.3,183.5,129.7,182.8,124.1L182.8,124.1z"/>
<path class="st2" d="M63.1,123.8c0.4-4.1,3.1-8.1,5.4-11.4c3.1-4.4,6.4-8.7,9.9-12.7c3.2-3.7,6.4-7.3,9.9-10.7
	c1.9-1.9,8-8.1,17.4-16.2c10.3-8.8,13.4-10.3,16.3-11.4c3.5-1.1,7-1.8,10.7-2.1c3.9-0.4,5.1,0.1,14,0.2l13.4,0.2
	c4.6,0.1,9.3-0.1,14,0.2c5,0.4,9.7,2.7,13,6.6c1.2,1.5,2.2,3.1,2.8,4.9c0.6,1.8,0.9,3.7,0.7,5.6l-0.4,13.9l-0.2,6.7
	c-0.1,2,0,4.1-1.1,5.9c-0.8,1.2-2,1.9-2.9,2.9c-0.8,0.9-1.4,2-1.7,3.2c-0.2,0.8-0.4,1.5-0.5,2.3c0,0.5,0,0.9-0.1,1.4v0.5h-1.1
	l-6.5,0.1c-4.2,0.1-8.4,0.1-12.6,0.2c-7,0.1-14,0.1-20.9,0.1c-12,0-24-0.7-35.9-0.1c-2.9,0-5.8,0.5-8.6,1.4c-2,0.8-3.9,1.9-5.7,3.1
	c-4,2.6-8.1,5.1-12.3,7.3c-2.4,1.3-4.9,2.4-7.4,3.4c-2.2,0.8-5.1,1.7-7.3,0.5S62.9,125.8,63.1,123.8L63.1,123.8z"/>
<path d="M72,120.7c0.3,0.4,5.5-3,33.3-19.9c4.7-2.8,55.3-35.3,54-37.3c-0.6-1.1-14.7,5.9-22.1,10.1c-1.2,0.7-4.4,2.5-8.5,5
	c-7.8,4.8-13.1,9.1-15.2,10.5C102.4,96.7,71.3,119.5,72,120.7z M96.5,115.8c16.1-7.5,33.5-11.9,51.3-13.1c6.8-0.5,13.7-0.3,20.5,0.5
	c1.2,0.1,7.6,0.4,8.1,2s-14.2,1.3-16.1,1.3c-6.7,0-9.1-0.2-14.7,0.3c-1.5,0.1-5,0.4-9,1.1c-12.1,2-15.6,5.1-25.5,6.9
	C106.3,115.7,101.4,116,96.5,115.8L96.5,115.8z M172.4,70.9l-3.5,7l-7.4,1.1l5.4,5.3l-1.3,7.5l6.8-3.5l6.7,3.5l-1.2-7.5l5.4-5.3
	l-7.4-1.1L172.4,70.9L172.4,70.9z"/>
<path class="st1" d="M172.4,74.1L170,79l-5.6,0.9l4,4l-1,5.4l5-2.6l4.9,2.6l-0.9-5.4l3.9-4l-5.5-0.9L172.4,74.1z"/>
</svg>
