<svg id="Layer_1" data-name="Layer 1" xmlns="http://www.w3.org/2000/svg" viewBox="0 0 72 72"><defs><style>.cls-1{fill:#fff;}</style></defs><title>Artboard 1</title><rect class="cls-1" x="7.7" y="7.7" width="56.6" height="56.6"/><path d="M63.8,8.2V63.8H8.2V8.2H63.8m1-1H7.2V64.8H64.8V7.2Z"/><polygon points="10.13 61.86 10.13 58.6 34.35 58.6 34.35 49.75 10.13 49.75 10.13 46.48 34.35 46.48 34.35 41.37 20.39 41.37 20.39 37.63 10.13 37.63 10.13 34.37 34.35 34.37 34.35 25.52 10.13 25.52 10.13 22.25 34.35 22.25 34.35 13.4 10.13 13.4 10.13 10.14 61.87 10.14 61.87 13.4 37.65 13.4 37.65 22.25 61.87 22.25 61.87 25.52 37.65 25.52 37.65 34.37 61.87 34.37 61.87 37.63 51.61 37.63 51.61 41.37 37.65 41.37 37.65 46.48 61.87 46.48 61.87 49.75 37.65 49.75 37.65 58.6 61.87 58.6 61.87 61.86 10.13 61.86"/><path d="M61.37,10.64V12.9H37.15v9.85H61.37V25H37.15v9.85H61.37v2.26H51.11v3.74h-14V47H61.37v2.27H37.15V59.1H61.37v2.26H10.63V59.1H34.85V49.25H10.63V47H34.85V40.87h-14V37.13H10.63V34.87H34.85V25H10.63V22.75H34.85V12.9H10.63V10.64H61.37m1-1H9.63V13.9H33.85v7.85H9.63V26H33.85v7.85H9.63v4.26H19.89v3.74h14V46H9.63v4.27H33.85V58.1H9.63v4.26H62.37V58.1H38.15V50.25H62.37V46H38.15V41.87h14V38.13H62.37V33.87H38.15V26H62.37V21.75H38.15V13.9H62.37V9.64Z"/></svg>